HIERARCHY
ROOT Hips
{
	OFFSET 0.000000 0.000000 0.000000
	CHANNELS 6 Xposition Yposition Zposition Xrotation Yrotation Zrotation
	JOINT LeftUpLeg_virtual
	{
		OFFSET 0.000000 0.000000 0.000000
		CHANNELS 3 Xrotation Yrotation Zrotation
		JOINT LeftUpLeg
		{
			OFFSET 11.394100 -6.187798 -0.413800
			CHANNELS 3 Xrotation Yrotation Zrotation
			JOINT LeftLeg
			{
				OFFSET 0.430247 -32.302673 3.732800
				CHANNELS 3 Xrotation Yrotation Zrotation
				JOINT LeftFoot
				{
					OFFSET -0.430247 -48.264931 -6.423300
					CHANNELS 3 Xrotation Yrotation Zrotation
					JOINT LeftToeBase
					{
						OFFSET 4.230900 -16.068199 23.438400
						CHANNELS 3 Xrotation Yrotation Zrotation
						JOINT LeftToe_End
						{
							OFFSET 4.510700 0.695400 19.974600
							CHANNELS 3 Xrotation Yrotation Zrotation
							End Site
							{
								OFFSET 0 0 0
							}
						}
					}
				}
			}
		}
	}
	JOINT RightUpLeg_virtual
	{
		OFFSET 0.000000 0.000000 0.000000
		CHANNELS 3 Xrotation Yrotation Zrotation
		JOINT RightUpLeg
		{
			OFFSET -11.333700 -6.187798 -0.413800
			CHANNELS 3 Xrotation Yrotation Zrotation
			JOINT RightLeg
			{
				OFFSET -0.430392 -32.302628 3.733000
				CHANNELS 3 Xrotation Yrotation Zrotation
				JOINT RightFoot
				{
					OFFSET 0.430392 -48.264973 -6.423500
					CHANNELS 3 Xrotation Yrotation Zrotation
					JOINT RightToeBase
					{
						OFFSET -4.230900 -16.068199 23.438400
						CHANNELS 3 Xrotation Yrotation Zrotation
						JOINT RightToe_End
						{
							OFFSET -4.510700 0.695400 19.974600
							CHANNELS 3 Xrotation Yrotation Zrotation
							End Site
							{
								OFFSET 0 0 0
							}
						}
					}
				}
			}
		}
	}
	JOINT Spine_virtual
	{
		OFFSET 0.000000 0.000000 0.000000
		CHANNELS 3 Xrotation Yrotation Zrotation
		JOINT Spine
		{
			OFFSET -0.002400 12.777504 0.315300
			CHANNELS 3 Xrotation Yrotation Zrotation
			JOINT Spine1
			{
				OFFSET -0.002067 5.816869 0.032633
				CHANNELS 3 Xrotation Yrotation Zrotation
				JOINT Spine1_split
				{
					OFFSET -0.002067 5.816869 0.032633
					CHANNELS 3 Xrotation Yrotation Zrotation
					JOINT Spine2
					{
						OFFSET -0.002067 5.816869 0.032633
						CHANNELS 3 Xrotation Yrotation Zrotation
						JOINT Neck_virtual
						{
							OFFSET 0.000000 0.000000 0.000000
							CHANNELS 3 Xrotation Yrotation Zrotation
							JOINT Neck
							{
								OFFSET -0.003700 21.199493 -0.826900
								CHANNELS 3 Xrotation Yrotation Zrotation
								JOINT Head
								{
									OFFSET 0.000000 20.442200 4.834800
									CHANNELS 3 Xrotation Yrotation Zrotation
									JOINT HeadTop_End
									{
										OFFSET 0.000000 34.668396 4.968400
										CHANNELS 3 Xrotation Yrotation Zrotation
										End Site
										{
											OFFSET 0 0 0
										}
									}
								}
							}
						}
						JOINT LeftShoulder_virtual
						{
							OFFSET 0.000000 0.000000 0.000000
							CHANNELS 3 Xrotation Yrotation Zrotation
							JOINT LeftShoulder
							{
								OFFSET 3.288150 8.794197 -1.372250
								CHANNELS 3 Xrotation Yrotation Zrotation
								JOINT LeftShoulder_split
								{
									OFFSET 3.288150 8.794197 -1.372250
									CHANNELS 3 Xrotation Yrotation Zrotation
									JOINT LeftArm
									{
										OFFSET 11.953299 -2.279007 -0.146200
										CHANNELS 3 Xrotation Yrotation Zrotation
										JOINT LeftForeArm
										{
											OFFSET 18.448900 0.000000 0.000000
											CHANNELS 3 Xrotation Yrotation Zrotation
											JOINT LeftHand
											{
												OFFSET 29.527798 0.000000 0.000000
												CHANNELS 3 Xrotation Yrotation Zrotation
												End Site
												{
													OFFSET 0 0 0
												}
											}
										}
									}
								}
							}
						}
						JOINT RightShoulder_virtual
						{
							OFFSET 0.000000 0.000000 0.000000
							CHANNELS 3 Xrotation Yrotation Zrotation
							JOINT RightShoulder
							{
								OFFSET -3.249400 8.794197 -1.372250
								CHANNELS 3 Xrotation Yrotation Zrotation
								JOINT RightShoulder_split
								{
									OFFSET -3.249400 8.794197 -1.372250
									CHANNELS 3 Xrotation Yrotation Zrotation
									JOINT RightArm
									{
										OFFSET -11.953299 -2.279007 -0.146200
										CHANNELS 3 Xrotation Yrotation Zrotation
										JOINT RightForeArm
										{
											OFFSET -18.448900 0.000000 0.000000
											CHANNELS 3 Xrotation Yrotation Zrotation
											JOINT RightHand
											{
												OFFSET -29.527802 0.000000 0.000000
												CHANNELS 3 Xrotation Yrotation Zrotation
												End Site
												{
													OFFSET 0 0 0
												}
											}
										}
									}
								}
							}
						}
					}
				}
			}
		}
	}
}
MOTION
Frames: 5
Frame Time: 0.03333333
43.092247 95.761444 18.595568 0.000000 0.000000 0.000000 6.669711 -52.470101 3.372744 -15.834330 10.301982 -2.815037 41.574596 6.929740 7.794837 -14.093682 13.804368 4.172503 -19.999682 0.905948 0.491863 0.000000 0.000000 0.000000 8.463051 -54.517446 4.717351 -43.667746 22.722991 -10.312814 44.299446 5.238810 -3.892347 35.141644 -8.507190 49.866193 0.986544 8.984213 -12.706508 0.000000 0.000000 0.000000 10.239742 -41.838354 3.420377 6.323756 10.759345 6.084101 -1.391319 9.445958 -3.590274 0.257181 -1.002141 0.167904 0.000000 0.000000 0.000000 5.733898 10.681222 -2.335281 -15.756539 8.705890 13.332741 10.511799 -25.488584 11.783190 0.000000 0.000000 0.000000 1.822927 8.412698 -2.989547 -6.893211 -24.169420 -25.081631 -0.504100 4.329227 -7.607341 -25.935516 37.167922 -54.699850 10.345033 -44.915184 1.418449 0.000000 0.000000 0.000000 -1.104532 7.386486 -1.208339 11.602718 -15.417919 0.753679 -6.494955 -0.523982 -2.351045 21.450487 -36.197236 53.776166 173.701136 54.916647 -159.736719 0.000000 0.000000 0.000000 
43.076530 95.536362 22.060930 0.000000 0.000000 0.000000 5.801675 -50.009060 1.526431 -15.197516 11.175673 -3.385015 42.891092 6.027868 8.806683 -14.634145 9.480162 4.645588 -24.458129 1.511093 -0.646667 0.000000 0.000000 0.000000 8.236769 -52.281096 3.311436 -50.327662 25.253120 -5.436457 51.073221 6.083959 -3.753881 35.520843 -6.830612 45.868050 3.036424 6.722054 -9.429891 0.000000 0.000000 0.000000 9.751755 -39.606211 2.150990 6.901633 9.746411 6.785295 -1.271220 8.781006 -3.704541 0.227745 -1.054772 0.161607 0.000000 0.000000 0.000000 5.742720 10.086782 -2.246821 -15.695338 10.401920 13.311432 10.866913 -24.999961 11.880042 0.000000 0.000000 0.000000 1.964680 7.831361 -2.898897 -6.850836 -25.907469 -24.936928 0.306251 3.988508 -7.984610 -27.830022 35.524101 -53.606023 13.994634 -47.068572 5.140375 0.000000 0.000000 0.000000 -1.215694 6.623841 -1.267771 11.801992 -14.635881 1.299200 -5.274432 -0.243429 -2.546969 23.515129 -39.909328 56.610934 173.136485 52.982477 -159.018484 0.000000 0.000000 0.000000 
43.161098 95.675583 25.423071 0.000000 0.000000 0.000000 5.246253 -46.905812 -0.265876 -14.722908 11.775479 -3.758681 42.941235 4.894426 9.752689 -14.758237 4.319459 4.738209 -28.202705 2.175549 -1.852950 0.000000 0.000000 0.000000 7.756652 -49.208678 1.484453 -54.964465 25.700048 -0.718859 54.785910 5.749804 -3.144123 33.421553 -6.827367 40.799688 5.399679 4.672866 -7.141910 0.000000 0.000000 0.000000 9.723012 -36.584809 0.809063 7.550009 8.578049 7.686166 -1.052299 8.221592 -3.828495 0.195401 -1.066563 0.152737 0.000000 0.000000 0.000000 5.743525 9.560356 -2.140635 -15.561792 12.006423 13.160120 10.920295 -25.154490 12.003515 0.000000 0.000000 0.000000 2.111635 7.363579 -2.851367 -6.763081 -27.734057 -24.709927 0.990659 3.565733 -8.471505 -29.481753 33.758562 -52.599563 17.369029 -49.639762 8.737529 0.000000 0.000000 0.000000 -1.276265 5.956392 -1.377935 11.916318 -14.044308 1.795787 -4.126222 0.171424 -2.391092 23.979285 -42.903297 58.529435 172.150506 51.874119 -157.932825 0.000000 0.000000 0.000000 
43.358521 96.238686 29.033636 0.000000 0.000000 0.000000 5.177055 -43.100410 -1.712936 -13.908220 11.999140 -4.050023 41.751939 3.831892 10.397769 -14.676857 -0.890406 4.755454 -30.274609 2.854676 -3.064755 0.000000 0.000000 0.000000 6.716431 -45.987544 -0.542214 -58.345880 24.759287 2.827298 55.379075 4.338272 -2.177233 31.924997 -6.750425 36.677272 7.867835 2.817244 -5.718466 0.000000 0.000000 0.000000 9.897242 -32.837384 -0.578040 8.179566 7.215501 8.653693 -0.684847 7.802790 -3.970309 0.167433 -1.031017 0.120930 0.000000 0.000000 0.000000 5.782599 9.151163 -2.039923 -15.310434 13.433637 12.977408 10.915798 -25.969964 12.252286 0.000000 0.000000 0.000000 2.298115 7.042038 -2.884222 -6.618107 -29.519296 -24.387675 1.515103 2.918948 -9.061200 -30.690670 31.796194 -51.787051 20.578723 -52.968957 12.330542 0.000000 0.000000 0.000000 -1.208932 5.445846 -1.549207 11.964996 -13.738435 2.134663 -2.889233 0.818616 -1.724149 22.736943 -44.786220 59.155203 170.916332 51.117187 -156.636783 0.000000 0.000000 0.000000 
43.681538 96.978638 32.693153 0.000000 0.000000 0.000000 5.463362 -38.579326 -2.857742 -12.602864 12.090490 -4.255347 39.645194 3.340250 10.568003 -14.713681 -5.452014 5.088160 -30.772263 3.443084 -4.174014 0.000000 0.000000 0.000000 6.206546 -41.931245 -2.038651 -60.653890 23.567629 5.116270 52.104207 2.617382 -1.424414 31.264054 -6.260943 34.596216 9.804911 1.031968 -5.316274 0.000000 0.000000 0.000000 9.950465 -28.403615 -1.928336 8.752033 5.670247 9.587309 -0.185738 7.509715 -4.122056 0.166607 -0.927251 0.105958 0.000000 0.000000 0.000000 5.860807 8.864257 -1.986427 -14.898541 14.610492 12.836579 11.093672 -27.349689 12.639800 0.000000 0.000000 0.000000 2.540330 6.840048 -2.968804 -6.393731 -31.287676 -23.934125 1.863590 2.150493 -9.829959 -31.423173 29.579562 -51.232399 23.898173 -57.106163 16.226655 0.000000 0.000000 0.000000 -1.009739 5.110791 -1.785879 11.947927 -13.622692 2.346888 -1.881758 1.458694 -0.554451 20.075944 -45.333967 58.534919 169.767904 50.293685 -155.390314 0.000000 0.000000 0.000000 
